# xmcd CD database file
#
# Track frame offsets:
#	150
#	13874
#	26161
#	40926
#	58967
#	73899
#	86845
#	98578
#	114955
#	142056
#	159336
#	180734
#	201146
#	217532
#
# Disc length: 3031 seconds
#
# Revision: 2
# Processed by: cddbd v1.5.2PL0 Copyright (c) Steve Scherf et al.
# Submitted via: CDex 1.70beta2
#
DISCID=c30bd50e
DTITLE=Pink Martini - Hang On Little Tomato
DYEAR=2004
DGENRE=Jazz
TTITLE0=Let's Never Stop Falling In Love
TTITLE1=Lilly
TTITLE2=Hang On Little Tomato
TTITLE3=The Gardens Of Sampson and Beasley
TTITLE4=Veronique
TTITLE5=Dansez-Vous
TTITLE6=Anna (El Negro Zumbon)
TTITLE7=Autrefois
TTITLE8=U Plavu Zoru
TTITLE9=Clementine
TTITLE10=Una Notte A Napoli
TTITLE11=Kikuchiyo To Mohshimasu
TTITLE12=Aspettami
TTITLE13=Song Of The Black Swan
EXTD=YEAR: 2004
EXTT0=
EXTT1=
EXTT2=
EXTT3=
EXTT4=
EXTT5=
EXTT6=
EXTT7=
EXTT8=
EXTT9=
EXTT10=
EXTT11=
EXTT12=
EXTT13=
PLAYORDER=
